<?xml version="1.0" encoding="utf-8" ?>
<svg xmlns="http://www.w3.org/2000/svg" xmlns:xlink="http://www.w3.org/1999/xlink" width="1024" height="1024">
	<path fill="#2C2C2C" d="M509.275 48.1507C512.877 47.9539 516.071 48.4087 519.429 49.7698C525.676 52.3023 531.815 56.1871 537.734 59.4611L570.577 77.6668C608.283 98.1994 645.825 119.03 683.202 140.156L828.606 220.334L878.426 247.514C889.068 253.314 899.987 258.87 910.259 265.304C914.996 268.27 918.313 271.735 920.359 276.985C921.173 279.076 921.614 281.13 921.78 283.364C922.58 294.073 921.947 305.233 921.932 315.997L921.948 375.894L921.769 584.814L921.935 690.669C921.935 706.457 922.464 722.392 921.948 738.159C921.843 741.371 921.388 745.79 920.035 748.704C918.581 751.837 915.529 754.361 912.64 756.123C904.775 760.918 896.555 765.267 888.56 769.859C863.331 784.271 837.983 798.474 812.52 812.469L668.584 893.01L567.513 948.858L536.567 965.808C529.546 969.625 522.489 973.761 515.069 976.745C509.888 976.933 505.999 975.305 501.421 973.086C488.785 966.962 476.528 959.692 464.217 952.931C444.631 942.174 425.028 931.527 405.601 920.482L313.251 868.873L147.258 776.581C135.951 770.374 124.276 764.817 113.016 758.564C108.166 755.871 104.595 752.16 103.144 746.68C101.302 739.723 102.438 723.964 102.461 716.229L102.53 663.144L102.222 395.923L102.1 325.483C102.07 315.896 100.698 284.402 103.299 276.601C103.709 275.369 104.17 274.148 104.836 273.029C106.416 270.372 108.907 268.007 111.587 266.491C162.701 238.052 213.974 209.901 265.405 182.039L395.473 109.644L461.451 73.1211C474.157 66.0123 496.571 51.7328 509.275 48.1507ZM527.331 350.218C537.157 371.155 549.422 391.452 560.745 411.63C576.307 439.14 591.618 466.791 606.677 494.58C614.911 509.426 623.703 524.014 631.55 539.069L688.94 641.582L775.505 490.202C788.338 467.939 889.657 295.944 890.461 289.339C870.111 291.583 849.603 295.625 829.375 298.893C781.419 306.795 733.504 314.938 685.63 323.322L578.247 341.374L544.775 347.035C538.989 348.03 533.029 348.813 527.331 350.218ZM335.455 639.71C350.532 615.426 363.905 589.877 377.795 564.883C383.128 555.285 388.069 544.941 394.08 535.772C418.126 493.793 441.677 451.533 464.729 409L487.175 368.629C490.513 362.528 494.156 356.459 497.055 350.146C485.665 347.514 473.976 345.837 462.446 343.902C446.408 341.093 430.35 338.396 414.275 335.81L307.404 317.443L195.396 298.602C181.61 296.218 167.812 293.911 154.001 291.679C146.915 290.52 139.768 288.932 132.606 288.362C145.515 312.866 160.138 336.631 173.939 360.65L257.529 505.393L302.18 582.961C309.409 595.761 316.763 608.488 324.243 621.142C327.903 627.317 331.398 633.793 335.455 639.71ZM521.309 331.997L697.804 301.889L783.6 287.463C798.202 285.035 812.817 282.326 827.466 280.229C845.438 276.979 863.598 273.893 881.659 271.178C869.673 263.521 856.585 257.193 844.099 250.346L782.334 216.083L603.196 116.689L547.473 85.8722C538.936 81.1369 529.651 76.7637 521.469 71.5054C520.856 87.5709 521.233 103.747 521.277 119.825L521.168 179.869C521.182 230.561 520.577 281.315 521.309 331.997ZM322.301 654.986L192.372 430.21C174.586 398.632 156.415 367.272 137.864 336.137C134.696 330.746 124.646 311.742 121.322 308.679C122.045 344.099 121.48 379.647 121.529 415.081L121.736 626.107C121.763 661.318 121.042 696.719 122.037 731.903C144.615 724.564 166.603 715.066 188.765 706.556L237.309 687.952C247.07 684.255 256.981 680.799 266.627 676.827C278.609 672.296 290.561 667.683 302.48 662.99C309.087 660.399 315.888 658.012 322.301 654.986ZM511.872 362.318L409.186 546.9C389.884 581.379 369.957 615.667 351.664 650.687C370.289 651.212 389.055 650.44 407.699 650.44C442.809 650.607 477.919 650.589 513.029 650.384L672.456 650.532C666.004 638.794 659.185 627.276 652.691 615.564C619.901 555.792 586.782 496.2 553.335 436.793C548.24 427.62 514.653 364.357 511.872 362.318ZM534.794 945.561L662.213 875.374L807.526 793.932C825.069 784.323 842.541 774.587 859.943 764.725C869.938 759.099 880.245 753.715 889.818 747.4C863.465 735.884 835.919 726.513 809.145 715.973C785.422 706.652 761.625 697.517 737.758 688.571C722.632 682.763 707.496 676.345 692.131 671.242C660.752 728.855 628.374 785.918 595.012 842.406C581.454 865.105 568.045 887.893 554.785 910.768C548.137 922.127 540.348 933.67 534.794 945.561ZM902.591 308.376C898.882 313.229 895.984 318.98 892.941 324.274L877.596 350.995C858.09 383.664 839.027 416.595 820.412 449.778L745.32 579.741C734.998 597.355 724.794 615.039 714.711 632.792C710.511 640.207 706.035 647.56 702.135 655.134C720.802 662.077 739.418 669.158 757.981 676.377L847.788 710.792C866.046 717.773 884.292 725.375 903.025 730.991C902.59 718.811 902.993 706.548 903.009 694.357L903.027 625.362L903.024 410.645L903.043 338.591C903.037 330.939 903.928 314.785 902.591 308.376ZM331.614 672.521C292.822 686.75 254.437 701.894 215.842 716.627C198.853 723.103 181.915 729.71 165.028 736.446C155.078 740.394 144.815 744.078 135.174 748.726C181.728 773.837 228.017 799.437 274.033 825.521C303.836 842.189 334.085 858.289 363.526 875.578C387.602 889.264 411.469 903.465 435.738 916.793C453.432 926.51 471.779 935.324 489.159 945.578C483.488 937.328 478.82 928.166 473.913 919.43C467.457 907.972 460.898 896.574 454.235 885.235L414.476 817.273C407.093 804.7 399.47 792.227 392.374 779.491C385.955 767.973 335.183 675.47 331.614 672.521ZM671.785 669.224C632.785 669.454 593.785 669.416 554.786 669.109L352.027 669.137C369.717 702.317 388.099 735.124 407.16 767.535L476.357 887.089C488.225 907.314 500.491 927.352 512.02 947.772C531.324 913.701 551.054 879.873 571.205 846.297C594.272 807.724 616.75 768.802 638.63 729.545C645.961 716.635 653.192 703.669 660.322 690.647C664.206 683.585 668.401 676.535 671.785 669.224ZM502.44 72.0436L265.249 203.584L183.339 248.892L158.461 262.233C153.449 264.912 148.03 267.462 143.432 270.819C161.356 273.774 179.374 277.74 197.392 279.939L413.25 316.514L473.736 326.863C483.505 328.521 493.286 330.477 503.107 331.777C503.103 306.183 503.989 74.1629 502.44 72.0436Z"/>
	<path fill="#2C2C2C" d="M558.242 121.334C566.254 124.581 574.257 129.646 581.918 133.746C605.282 146.247 628.027 159.825 651.18 172.704C683.614 190.355 715.906 208.266 748.054 226.435C754.081 229.796 778.632 242.126 782.005 245.898L781.369 246.296L646.121 238.465C641.478 233.508 637.5 227.652 633.411 222.225L611.987 193.851C599.624 177.976 587.483 161.929 575.569 145.714C569.752 137.854 563.018 129.828 558.242 121.334Z"/>
	<path fill="#2C2C2C" d="M462.164 123.043L462.225 123.371C461.351 126.891 385.782 227.6 376.687 238.761C361.445 241.245 345.426 241.373 330.021 242.721C319.916 243.606 309.848 244.876 299.749 245.824C277.732 247.891 255.628 249.71 233.663 252.249C233.66 252.217 233.645 252.184 233.655 252.153C233.745 251.865 233.781 251.543 233.961 251.3C235.527 249.178 270.237 230.651 274.665 228.181L403.486 155.939C422.962 144.972 443.193 134.825 462.164 123.043Z"/>
	<path fill="#0058F5" d="M876.838 412.215C876.927 412.26 877.03 412.285 877.106 412.351C878.119 413.236 877.572 416.518 877.543 417.861C877.071 451.889 876.892 485.922 877.005 519.954L877.234 689.64C868.852 675.708 861.544 660.838 854.03 646.408C844.505 628.465 835.541 610.23 826.075 592.26C820.832 582.306 812.691 569.326 808.979 559.092C811.012 553.404 813.85 547.903 816.361 542.404C821.952 530.158 827.798 518.049 833.525 505.868C848.184 474.753 862.622 443.535 876.838 412.215Z"/>
	<path fill="#0058F5" d="M145.731 410.841C148.001 413.079 163.693 450.847 166.776 457.653C176.282 478.642 186.309 499.405 196.027 520.298C202.52 534.258 208.389 548.491 215.611 562.101C209.676 572.311 204.384 582.895 198.764 593.281L171.66 642.825C168.891 647.209 166.54 652.053 164.039 656.617C158.213 667.252 152.49 677.95 146.201 688.322C147.288 673.888 146.498 658.837 146.513 644.342L146.588 561.617L146.549 468.328L146.178 434.8C146.093 426.839 146.273 418.783 145.731 410.841Z"/>
	<path fill="#0058F5" d="M818.918 754.283L827.488 753.686C813.272 762.105 798.535 769.618 784.117 777.683L701.475 824.179C672.441 840.315 643.906 857.309 614.796 873.312L608.103 877.077C615.775 868.378 622.9 859.041 630.222 850.038C648.627 827.494 666.763 804.732 684.626 781.756C689.674 775.394 694.419 768.765 699.627 762.536C706.818 762.358 714.057 761.563 721.242 761.101C739.183 760.01 757.111 758.713 775.022 757.212C789.619 756.051 804.28 754.682 818.918 754.283Z"/>
	<path fill="#0058F5" d="M195.345 753.086C202.21 753.009 209.262 753.758 216.104 754.275C228.492 755.229 240.874 756.258 253.25 757.364C275.954 759.263 298.838 760.318 321.495 762.609L389.847 845.227C396.504 853.425 411.55 870.306 415.845 878.56C408.245 875.569 398.225 868.233 390.942 863.846C378.066 856.237 365.132 848.726 352.142 841.314C300.122 811.47 247.855 782.06 195.345 753.086Z"/>
</svg>
